<svg xmlns="http://www.w3.org/2000/svg" width="720" height="540" viewBox="0 0 720 540">
  <rect width="720" height="540" fill="#f0ede0"></rect>
  
  
  <rect width="720" height="80" fill="#f0ede0"></rect>
  <line x1="0" y1="80" x2="720" y2="80" stroke="#1a1a10" stroke-opacity="0.12"></line>
  <text x="32" y="36" font-family="Georgia,serif" font-size="28" font-style="italic" fill="#1a1a10" opacity="0.9">Lumen</text>
  <text x="32" y="58" font-family="monospace" font-size="11" fill="#1a1a10" opacity="0.4" text-transform="uppercase" letter-spacing="2">EDUCATION · ANDROID</text>
  
  
  
  
  <rect x="32" y="108" width="198" height="390" rx="20" fill="white" stroke="#1a1a10" stroke-opacity="0.1" stroke-width="1"></rect>
  
  <rect x="101" y="118" width="60" height="12" rx="6" fill="#f0ede0"></rect>
  
  <text x="46" y="146" font-family="monospace" font-size="9" fill="#1a1a10" opacity="0.35">9:41</text>
  <text x="180" y="146" font-family="monospace" font-size="9" fill="#1a1a10" opacity="0.35">●●●○</text>
  
  <rect x="46" y="158" width="170" height="18" rx="9" fill="#f0ede0"></rect>
  <text x="54" y="171" font-family="monospace" font-size="9" fill="#1a1a10" opacity="0.5">Review · Biology</text>
  
  <rect x="46" y="190" width="127.5" height="18" rx="3" fill="#6b5a2d" opacity="0.15"></rect>
  <rect x="46" y="190" width="40" height="18" rx="3" fill="#6b5a2d" opacity="0.4"></rect>
  <rect x="46" y="218" width="170" height="80" rx="8" fill="#f0ede0"></rect>
  <rect x="58" y="230" width="87.6" height="8" rx="3" fill="#1a1a10" opacity="0.12"></rect>
  <rect x="58" y="244" width="131.4" height="6" rx="3" fill="#1a1a10" opacity="0.07"></rect>
  <rect x="58" y="256" width="102.19999999999999" height="6" rx="3" fill="#1a1a10" opacity="0.07"></rect>
  <rect x="46" y="312" width="170" height="60" rx="8" fill="#f0ede0"></rect>
  <rect x="58" y="324" width="73" height="8" rx="3" fill="#1a1a10" opacity="0.12"></rect>
  <rect x="58" y="338" width="116.80000000000001" height="6" rx="3" fill="#1a1a10" opacity="0.07"></rect>
  <rect x="46" y="386" width="170" height="60" rx="8" fill="#f0ede0"></rect>
  <rect x="58" y="398" width="94.9" height="8" rx="3" fill="#1a1a10" opacity="0.12"></rect>
  <rect x="58" y="412" width="65.7" height="6" rx="3" fill="#1a1a10" opacity="0.07"></rect>
  
  <rect x="46" y="448" width="170" height="32" rx="16" fill="#6b5a2d" opacity="0.85"></rect>
  <text x="131" y="469" font-family="sans-serif" font-size="11" fill="white" text-anchor="middle" font-weight="500">Continue</text>
  
  
  <rect x="256" y="108" width="198" height="390" rx="20" fill="white" stroke="#1a1a10" stroke-opacity="0.1" stroke-width="1"></rect>
  
  <rect x="325" y="118" width="60" height="12" rx="6" fill="#f0ede0"></rect>
  
  <text x="270" y="146" font-family="monospace" font-size="9" fill="#1a1a10" opacity="0.35">9:41</text>
  <text x="404" y="146" font-family="monospace" font-size="9" fill="#1a1a10" opacity="0.35">●●●○</text>
  
  <rect x="270" y="158" width="170" height="18" rx="9" fill="#f0ede0"></rect>
  <text x="278" y="171" font-family="monospace" font-size="9" fill="#1a1a10" opacity="0.5">Tutor messages</text>
  
  <rect x="270" y="190" width="127.5" height="18" rx="3" fill="#6b5a2d" opacity="0.15"></rect>
  <rect x="270" y="190" width="40" height="18" rx="3" fill="#6b5a2d" opacity="0.4"></rect>
  <rect x="270" y="218" width="170" height="80" rx="8" fill="#f0ede0"></rect>
  <rect x="282" y="230" width="87.6" height="8" rx="3" fill="#1a1a10" opacity="0.12"></rect>
  <rect x="282" y="244" width="131.4" height="6" rx="3" fill="#1a1a10" opacity="0.07"></rect>
  <rect x="282" y="256" width="102.19999999999999" height="6" rx="3" fill="#1a1a10" opacity="0.07"></rect>
  <rect x="270" y="312" width="170" height="60" rx="8" fill="#f0ede0"></rect>
  <rect x="282" y="324" width="73" height="8" rx="3" fill="#1a1a10" opacity="0.12"></rect>
  <rect x="282" y="338" width="116.80000000000001" height="6" rx="3" fill="#1a1a10" opacity="0.07"></rect>
  <rect x="270" y="386" width="170" height="60" rx="8" fill="#f0ede0"></rect>
  <rect x="282" y="398" width="94.9" height="8" rx="3" fill="#1a1a10" opacity="0.12"></rect>
  <rect x="282" y="412" width="65.7" height="6" rx="3" fill="#1a1a10" opacity="0.07"></rect>
  
  <rect x="270" y="448" width="170" height="32" rx="16" fill="#6b5a2d" opacity="0.85"></rect>
  <text x="355" y="469" font-family="sans-serif" font-size="11" fill="white" text-anchor="middle" font-weight="500">Continue</text>
  
  
  <rect x="480" y="108" width="198" height="390" rx="20" fill="white" stroke="#1a1a10" stroke-opacity="0.1" stroke-width="1"></rect>
  
  <rect x="549" y="118" width="60" height="12" rx="6" fill="#f0ede0"></rect>
  
  <text x="494" y="146" font-family="monospace" font-size="9" fill="#1a1a10" opacity="0.35">9:41</text>
  <text x="628" y="146" font-family="monospace" font-size="9" fill="#1a1a10" opacity="0.35">●●●○</text>
  
  <rect x="494" y="158" width="170" height="18" rx="9" fill="#f0ede0"></rect>
  <text x="502" y="171" font-family="monospace" font-size="9" fill="#1a1a10" opacity="0.5">Progress · Week 14</text>
  
  <rect x="494" y="190" width="127.5" height="18" rx="3" fill="#6b5a2d" opacity="0.15"></rect>
  <rect x="494" y="190" width="40" height="18" rx="3" fill="#6b5a2d" opacity="0.4"></rect>
  <rect x="494" y="218" width="170" height="80" rx="8" fill="#f0ede0"></rect>
  <rect x="506" y="230" width="87.6" height="8" rx="3" fill="#1a1a10" opacity="0.12"></rect>
  <rect x="506" y="244" width="131.4" height="6" rx="3" fill="#1a1a10" opacity="0.07"></rect>
  <rect x="506" y="256" width="102.19999999999999" height="6" rx="3" fill="#1a1a10" opacity="0.07"></rect>
  <rect x="494" y="312" width="170" height="60" rx="8" fill="#f0ede0"></rect>
  <rect x="506" y="324" width="73" height="8" rx="3" fill="#1a1a10" opacity="0.12"></rect>
  <rect x="506" y="338" width="116.80000000000001" height="6" rx="3" fill="#1a1a10" opacity="0.07"></rect>
  <rect x="494" y="386" width="170" height="60" rx="8" fill="#f0ede0"></rect>
  <rect x="506" y="398" width="94.9" height="8" rx="3" fill="#1a1a10" opacity="0.12"></rect>
  <rect x="506" y="412" width="65.7" height="6" rx="3" fill="#1a1a10" opacity="0.07"></rect>
  
  <rect x="494" y="448" width="170" height="32" rx="16" fill="#6b5a2d" opacity="0.85"></rect>
  <text x="579" y="469" font-family="sans-serif" font-size="11" fill="white" text-anchor="middle" font-weight="500">Continue</text>
  
  
  
  <text x="688" y="520" font-family="monospace" font-size="11" fill="#1a1a10" opacity="0.3" text-anchor="end">3 / 6</text>
</svg>